<svg width="180" height="180" viewBox="0 0 180 180" xmlns="http://www.w3.org/2000/svg">
  <rect width="180" height="180" rx="40" fill="#000000"/>
  <g transform="translate(30, 30)">
    <path d="M52.105 56.875c-1.47 5.14.06 10.32 3.92 13.265 5.305 4.05 12.825 1.5 14.37-4.975.4-1.685.515-3.61.135-5.28-1.15-5.005-2.6-9.94-3.96-14.98-6.65.77-12.715 5.86-14.465 11.97zm27.74-1.435c1.365 5.06 1.425 10.085-.635 15-5.64 13.45-23.605 15.7-32.865 4.13-6.51-8.135-6.4-19.805.3-28.67 3.9-5.16 9.02-8.535 15.24-10.27l1.895-.52c-.42-2.075-.94-4.08-1.215-6.12-.88-6.585 2.56-12.515 8.72-15.2 6.13-2.675 13.54-1.08 17.65 3.8 2.03 2.395 1.975 5.4-.125 7.32-2.06 1.885-4.98 1.73-7.175-.45-1.235-1.23-2.55-2.2-4.385-2.18-2.625.03-4.935 2.09-4.725 4.685.185 2.34.865 4.65 1.5 6.93.11.39 1.08.675 1.69.765 6.67.985 12.52 3.655 17.36 8.38 12.79 12.465 14.305 32.655 3.36 47.2-7.645 10.16-18.05 15.84-30.635 17.045-23.105 2.2-43.32-12.65-48.5-35.29C13.575 51.275 24.2 29.155 43.975 21.25c2.93-1.17 5.715-.155 6.855 2.49 1.16 2.685-.095 5.43-3.05 6.75-11.84 5.3-19.085 14.275-21.075 27.12-2.665 17.165 8.28 33.88 25 38.6 13.615 3.85 28.29-.83 36.54-11.65 7.93-10.4 7-25.495-2.135-34.365a19.895 19.895 0 0 0-9.115-5.065c.99 3.58 1.945 6.94 2.85 10.31z" fill="#FFFFFF"/>
  </g>
</svg>
