<svg width="22" height="22" viewBox="0 0 22 22" fill="none" xmlns="http://www.w3.org/2000/svg">
<path d="M9.55296 10.4272C9.28346 11.3695 9.56396 12.3192 10.2716 12.8591C11.2442 13.6016 12.6229 13.1341 12.9061 11.947C12.9795 11.6381 13.0005 11.2852 12.9309 10.979C12.72 10.0615 12.4542 9.1567 12.2049 8.2327C10.9857 8.37387 9.8738 9.30704 9.55296 10.4272ZM14.6386 10.1641C14.8889 11.0918 14.8999 12.013 14.5222 12.9141C13.4882 15.38 10.1946 15.7925 8.49696 13.6713C7.30346 12.1799 7.32363 10.0404 8.55196 8.41512C9.26696 7.46912 10.2056 6.85037 11.346 6.53229L11.6934 6.43695C11.6164 6.05654 11.521 5.68895 11.4706 5.31495C11.3093 4.1077 11.94 3.02054 13.0693 2.52829C14.1931 2.03787 15.5516 2.33029 16.3051 3.22495C16.6773 3.66404 16.6672 4.21495 16.2822 4.56695C15.9045 4.91254 15.3692 4.88412 14.9668 4.48445C14.7404 4.25895 14.4993 4.08112 14.1629 4.08479C13.6816 4.09029 13.2581 4.46795 13.2966 4.9437C13.3305 5.3727 13.4552 5.7962 13.5716 6.2142C13.5918 6.2857 13.7696 6.33795 13.8815 6.35445C15.1043 6.53504 16.1768 7.02454 17.0641 7.89079C19.409 10.176 19.6867 13.8775 17.6801 16.5441C16.2785 18.4068 14.371 19.4481 12.0637 19.669C7.8278 20.0724 4.12171 17.3499 3.17205 13.1992C2.3058 9.40054 4.43705 5.3452 8.06246 3.89595C8.59963 3.68145 9.11021 3.86754 9.31921 4.35245C9.53188 4.8447 9.3018 5.34795 8.76005 5.58995C6.58938 6.56162 5.26113 8.20704 4.8963 10.562C4.40771 13.7089 6.4143 16.7733 9.47963 17.6386C11.9757 18.3445 14.6661 17.4865 16.1786 15.5028C17.6325 13.5961 17.462 10.8287 15.7872 9.20254C15.3227 8.74994 14.7458 8.4294 14.1161 8.27395C14.2976 8.93029 14.4727 9.54629 14.6386 10.1641Z" fill="white"/>
</svg>
